# xmcd CD database file
#
# Track frame offsets:
#	150
#	3833
#	29157
#	47496
#	72494
#	95234
#	110890
#	126963
#	150179
#	182113
#	203046
#	213175
#
# Disc length: 2892 seconds
#
# Revision: 0
# Processed by: cddbd v1.5.1PL2 Copyright (c) Steve Scherf et al.
# Submitted via: CDex 1.50
#
DISCID=a80b4a0c
DTITLE=Bonsai - Desdobraduras
DYEAR=2001
DGENRE=Jazz
TTITLE0=A Bandinha
TTITLE1=Nhônhô da Botica
TTITLE2=Pro Zeca
TTITLE3=Córsega
TTITLE4=Valsa da Lua
TTITLE5=Sonhos
TTITLE6=21
TTITLE7=Jongo
TTITLE8=Manhã
TTITLE9=Berimba (pro Guello)
TTITLE10=Baião Maluco
TTITLE11=A Bandinha
EXTD=YEAR: 2001
EXTT0=
EXTT1=
EXTT2=
EXTT3=
EXTT4=
EXTT5=
EXTT6=
EXTT7=
EXTT8=
EXTT9=
EXTT10=
EXTT11=
PLAYORDER=
